<?xml version="1.0" encoding="utf-8"?>
<!-- Generator: Adobe Illustrator 19.2.0, SVG Export Plug-In . SVG Version: 6.00 Build 0)  -->
<svg version="1.1" id="Layer_1" xmlns="http://www.w3.org/2000/svg" xmlns:xlink="http://www.w3.org/1999/xlink" x="0px" y="0px"
	 viewBox="0 0 32 32" style="enable-background:new 0 0 32 32;" xml:space="preserve">
<style type="text/css">
	.st0{enable-background:new    ;}
	.st1{fill:#FFFFFF;}
</style>
<g class="st0">
	<path class="st1" d="M8,8.5C8.3,8.6,8.6,8.8,8.8,9c0.3,0.2,0.5,0.5,0.8,0.7c0.2,0.3,0.4,0.6,0.5,0.9s0.2,0.6,0.2,1
		c0,0.1,0,0.3,0,0.4c0,0.2-0.1,0.3-0.1,0.4c-0.1,0.1-0.2,0.3-0.3,0.3C9.7,12.9,9.5,13,9.3,13c-0.2,0-0.4,0-0.6-0.1
		c-0.2-0.1-0.3-0.2-0.3-0.3c0-0.1,0-0.1,0.1-0.2v0c0.1-0.2,0.2-0.4,0.3-0.6c0.1-0.2,0.1-0.4,0.1-0.6c0-0.2,0-0.5-0.1-0.7
		C8.6,10.2,8.5,10,8.4,9.8C8.3,9.7,8.1,9.5,7.9,9.4C7.8,9.3,7.6,9.3,7.4,9.3c-0.1,0-0.2,0.1-0.3,0.2c0,0.1-0.1,0.3-0.1,0.5
		c0,0.3,0,0.6,0.1,0.9c0.1,0.3,0.1,0.7,0.2,1c0.1,0.3,0.2,0.6,0.2,0.9c0.1,0.3,0.1,0.5,0.2,0.6C8,14,8.2,14.6,8.4,15.3
		c0.2,0.6,0.3,1.2,0.3,1.8c0,0.3,0,0.5-0.1,0.8c0,0.3-0.1,0.5-0.2,0.8c-0.1,0.3-0.3,0.6-0.6,0.9c-0.3,0.3-0.6,0.5-0.9,0.7
		c-0.3,0.2-0.7,0.4-1.1,0.5s-0.9,0.2-1.3,0.2c-0.6,0-1.2,0-1.7-0.1c-0.5-0.1-1-0.3-1.4-0.5c-0.4-0.2-0.7-0.5-1-0.9
		C0.1,19,0,18.5,0,18c0-0.4,0.1-0.8,0.2-1.2c0.2-0.4,0.4-0.7,0.6-1c0.3-0.3,0.6-0.5,0.9-0.7c0.3-0.2,0.7-0.3,1-0.3
		c0.2,0,0.5,0,0.8,0.1c0.3,0.1,0.5,0.2,0.8,0.4c0.2,0.2,0.5,0.4,0.6,0.6c0.2,0.2,0.2,0.5,0.2,0.9c0,0.1,0,0.2,0,0.3
		c0,0.1-0.1,0.2-0.1,0.3s-0.2,0.2-0.3,0.3c-0.1,0.1-0.3,0.1-0.5,0.1c-0.1,0-0.2,0-0.3,0c-0.1,0-0.2-0.1-0.3-0.1
		c-0.1,0-0.2-0.1-0.2-0.2c-0.1-0.1-0.1-0.1-0.1-0.2c0,0,0,0,0-0.1c0,0,0-0.1,0-0.1c0.1-0.2,0.2-0.5,0.2-0.7c0-0.3-0.1-0.5-0.3-0.7
		c-0.2-0.2-0.4-0.3-0.6-0.3c-0.3,0-0.5,0.1-0.7,0.2c-0.2,0.1-0.4,0.3-0.6,0.5C1.2,16.5,1,16.7,0.9,17c-0.1,0.3-0.2,0.6-0.2,0.9
		c0,0.3,0.1,0.6,0.2,0.9s0.3,0.5,0.6,0.7C1.7,19.7,2,19.9,2.3,20c0.3,0.1,0.6,0.1,1,0.1c0.5,0,1-0.1,1.4-0.2
		c0.4-0.2,0.7-0.4,0.9-0.7s0.4-0.6,0.5-1c0.1-0.4,0.2-0.7,0.2-1.1c0-0.6-0.1-1.2-0.3-1.7s-0.4-1.2-0.6-1.7C5.3,13.1,5.1,12.5,5,12
		s-0.2-1.1-0.2-1.6c0-0.3,0-0.6,0.1-0.9c0.1-0.3,0.2-0.5,0.4-0.7c0.2-0.2,0.4-0.3,0.6-0.5s0.5-0.2,0.9-0.2c0.2,0,0.4,0,0.6,0.1
		C7.6,8.4,7.8,8.4,8,8.5z"/>
	<path class="st1" d="M8.9,20.4c0-0.2,0-0.3,0.1-0.4s0.2-0.2,0.3-0.3c0.1-0.1,0.3-0.2,0.5-0.3s0.4-0.2,0.5-0.3
		c0.2-0.1,0.4-0.2,0.5-0.3c0.2-0.1,0.3-0.2,0.5-0.3c0.1-0.2,0.2-0.4,0.3-0.7s0.2-0.5,0.4-0.8c-0.2,0.2-0.4,0.3-0.6,0.4
		c-0.2,0.1-0.4,0.2-0.6,0.2c-0.3,0-0.6-0.1-0.7-0.4s-0.3-0.5-0.3-0.9c0-0.2,0-0.4,0.1-0.7c0.1-0.2,0.1-0.5,0.2-0.8
		c0.1-0.3,0.2-0.5,0.3-0.8c0.1-0.3,0.2-0.5,0.3-0.7c0.1-0.3,0.3-0.6,0.4-0.8c0.1-0.3,0.2-0.4,0.2-0.6c0,0,0,0,0-0.1c0,0,0,0,0,0
		c0,0,0,0,0-0.1c0-0.1,0.1-0.2,0.2-0.2c0.1-0.1,0.3-0.1,0.5-0.1c0.1,0,0.2,0,0.3,0c0.1,0,0.2,0.1,0.3,0.2s0.2,0.2,0.3,0.3
		c0.1,0.1,0.1,0.3,0.1,0.5c0,0.2,0,0.4-0.1,0.6c-0.1,0.2-0.2,0.5-0.3,0.7c-0.1,0.2-0.2,0.5-0.4,0.7c-0.1,0.2-0.3,0.5-0.4,0.7
		c-0.2,0.3-0.3,0.6-0.5,0.9c-0.1,0.3-0.2,0.5-0.2,0.6c0,0.1,0,0.1,0.1,0.1c0.1,0,0.2-0.1,0.4-0.3c0.2-0.2,0.4-0.4,0.6-0.7
		c0.2-0.3,0.4-0.6,0.6-0.9c0.2-0.3,0.4-0.6,0.5-0.9c0.2-0.5,0.4-0.9,0.6-1.3c0.2-0.4,0.2-0.7,0.2-0.9c0,0,0,0,0,0c0,0,0,0,0,0v0
		c0,0,0-0.1,0-0.1c0-0.1,0.1-0.2,0.2-0.2c0.2-0.1,0.3-0.1,0.5-0.1c0.1,0,0.2,0,0.3,0s0.2,0.1,0.3,0.2c0.1,0.1,0.2,0.2,0.3,0.3
		c0.1,0.1,0.1,0.3,0.1,0.4c0,0.2-0.1,0.5-0.2,0.8c-0.1,0.3-0.3,0.7-0.4,1.1c-0.2,0.4-0.4,0.8-0.6,1.2c-0.2,0.4-0.4,0.8-0.5,1.1
		c-0.1,0.1-0.1,0.3-0.2,0.3c0,0.1-0.1,0.2-0.1,0.2c0,0.1-0.1,0.1-0.1,0.1s0,0.1,0,0.1c0.3-0.2,0.6-0.5,0.9-0.8
		c0.3-0.3,0.5-0.7,0.8-1c0.2-0.3,0.5-0.7,0.6-1c0.2-0.3,0.3-0.6,0.4-0.8c0-0.1,0.1-0.2,0.1-0.2c0.1,0,0.1-0.1,0.2-0.1
		c0.1,0,0.2,0,0.2,0.1c0.1,0.1,0.1,0.1,0.1,0.2c0,0,0,0.1,0,0.1c-0.2,0.4-0.4,0.8-0.7,1.3c-0.3,0.5-0.6,0.9-1,1.3
		c-0.3,0.4-0.7,0.8-1.1,1.1c-0.4,0.3-0.7,0.6-1.1,0.8l-0.3,0.7c-0.1,0.2-0.2,0.5-0.3,0.7c-0.1,0.2-0.2,0.4-0.2,0.5
		c-0.1,0.2-0.2,0.4-0.3,0.5c-0.1,0.1-0.3,0.3-0.5,0.4c-0.2,0.1-0.4,0.2-0.6,0.2c-0.2,0.1-0.4,0.1-0.6,0.1c-0.2,0-0.3,0-0.5-0.1
		c-0.2,0-0.3-0.1-0.5-0.2c-0.1-0.1-0.3-0.2-0.4-0.3C9,20.8,8.9,20.6,8.9,20.4L8.9,20.4z M10,20.8c0.2,0,0.3-0.1,0.5-0.3
		c0.2-0.2,0.3-0.6,0.5-1.1l-0.4,0.2c-0.1,0.1-0.2,0.1-0.4,0.2c-0.1,0.1-0.2,0.1-0.3,0.2c-0.1,0.1-0.2,0.1-0.2,0.2
		c-0.1,0.1-0.1,0.1-0.1,0.2c0,0.1,0,0.2,0.1,0.3C9.8,20.7,9.9,20.8,10,20.8z"/>
	<path class="st1" d="M21.4,13c0,0.2-0.1,0.4-0.1,0.6c-0.1,0.2-0.1,0.4-0.2,0.6c-0.1,0.2-0.2,0.4-0.3,0.6c-0.1,0.2-0.2,0.4-0.3,0.6
		c-0.1,0.3-0.2,0.5-0.3,0.7c-0.1,0.2-0.1,0.4-0.1,0.5c0,0.1,0,0.1,0.2,0.1c0.1,0,0.2-0.1,0.3-0.2c0.1-0.1,0.3-0.3,0.4-0.5
		s0.3-0.4,0.5-0.6s0.3-0.5,0.5-0.7c0.1-0.2,0.3-0.4,0.4-0.7c0.1-0.2,0.2-0.4,0.2-0.5c0.1-0.2,0.2-0.2,0.3-0.2c0.1,0,0.2,0,0.2,0.1
		c0.1,0.1,0.1,0.1,0.1,0.2c0,0,0,0,0,0.1c0,0,0,0.1,0,0.1c-0.1,0.2-0.2,0.4-0.3,0.6c-0.1,0.2-0.3,0.5-0.5,0.8s-0.4,0.6-0.6,0.8
		c-0.2,0.3-0.4,0.5-0.6,0.7c-0.2,0.2-0.4,0.4-0.7,0.5c-0.2,0.1-0.4,0.2-0.6,0.2c-0.2,0-0.3,0-0.4-0.1c-0.1-0.1-0.2-0.2-0.3-0.3
		c-0.1-0.1-0.1-0.3-0.2-0.4s-0.1-0.3-0.1-0.5c0-0.3,0-0.5,0.1-0.8s0.1-0.5,0.2-0.8s0.2-0.5,0.3-0.7s0.2-0.4,0.3-0.6
		c0.1-0.2,0.2-0.4,0.3-0.6c0.1-0.2,0.1-0.3,0.1-0.4c0-0.1,0-0.1-0.1-0.1c-0.1,0-0.2,0.1-0.4,0.2s-0.3,0.3-0.5,0.5
		c-0.2,0.2-0.4,0.4-0.6,0.7c-0.2,0.2-0.4,0.5-0.5,0.7l0,0c-0.1,0.2-0.2,0.3-0.2,0.5c-0.1,0.2-0.2,0.3-0.3,0.5
		c-0.2,0.4-0.4,0.7-0.6,1.1c-0.2,0.3-0.2,0.6-0.2,0.8c0,0,0,0.1,0,0.1c0,0,0,0,0,0.1c0,0,0,0,0,0.1c0,0.1-0.1,0.2-0.2,0.3
		c-0.1,0.1-0.3,0.1-0.4,0.1c-0.1,0-0.2,0-0.3-0.1c-0.1,0-0.2-0.1-0.3-0.2c-0.1-0.1-0.2-0.2-0.2-0.3c-0.1-0.1-0.1-0.3-0.1-0.5
		c0-0.2,0-0.4,0.1-0.6c0.1-0.2,0.1-0.5,0.2-0.7c0.1-0.3,0.2-0.5,0.3-0.8c0.1-0.3,0.2-0.5,0.4-0.8c0.2-0.4,0.3-0.7,0.5-1
		c0.1-0.3,0.2-0.5,0.2-0.7c0,0,0,0,0-0.1c0,0,0,0,0,0c0,0,0,0,0-0.1c0-0.1,0.1-0.2,0.2-0.2c0.1-0.1,0.3-0.1,0.5-0.1
		c0.1,0,0.2,0,0.3,0s0.2,0.1,0.3,0.2c0.1,0.1,0.2,0.2,0.2,0.3c0.1,0.1,0.1,0.3,0.1,0.5v0.1c0.3-0.3,0.6-0.5,0.9-0.7
		c0.3-0.2,0.6-0.3,0.9-0.3c0.3,0,0.6,0.1,0.8,0.3s0.3,0.5,0.3,0.9c0,0.1,0,0.1,0,0.2C21.4,12.9,21.4,12.9,21.4,13z"/>
	<path class="st1" d="M21,11c0,0.1,0,0.2-0.1,0.3c-0.1,0.1-0.1,0.1-0.2,0.1c-0.1,0-0.2-0.1-0.3-0.2c-0.1-0.1-0.2-0.3-0.2-0.6
		c0-0.3,0.1-0.5,0.2-0.7c0.1-0.2,0.3-0.3,0.5-0.5c0.2-0.1,0.5-0.2,0.8-0.2c0.3,0,0.6-0.1,1-0.1c0.3,0,0.5,0,0.8,0
		c0.3,0,0.6,0,0.9,0.1c0.1-0.2,0.2-0.5,0.2-0.7s0.1-0.3,0.1-0.4c0,0,0,0,0,0c0,0,0,0,0-0.1c0-0.1,0.1-0.2,0.2-0.2
		c0.1-0.1,0.3-0.1,0.5-0.1c0.1,0,0.2,0,0.3,0c0.1,0,0.2,0.1,0.3,0.2c0.1,0.1,0.2,0.2,0.3,0.3c0.1,0.1,0.1,0.3,0.1,0.5
		c0,0.2,0,0.5-0.1,0.8h0.3c0.3,0,0.6,0,0.9,0s0.5,0,0.8-0.1s0.4-0.1,0.5-0.1C28.9,9.1,29,9,29,8.9c0-0.2,0.1-0.3,0.3-0.3
		c0.1,0,0.2,0.1,0.3,0.2s0.2,0.2,0.2,0.4c0,0.1-0.1,0.3-0.3,0.4c-0.2,0.1-0.5,0.2-0.9,0.4c-0.4,0.1-0.8,0.2-1.2,0.2
		c-0.5,0.1-1,0.1-1.5,0.1c-0.2,0.5-0.4,0.9-0.7,1.4c-0.3,0.5-0.5,1-0.7,1.5c-0.2,0.4-0.4,0.7-0.5,1.1c-0.2,0.4-0.3,0.7-0.5,1
		c-0.1,0.3-0.2,0.6-0.3,0.8S23,16.5,23,16.7c0,0.1,0,0.1,0,0.1c0.1,0,0.2-0.1,0.3-0.2c0.1-0.1,0.3-0.3,0.4-0.4s0.3-0.4,0.5-0.6
		c0.2-0.2,0.3-0.5,0.5-0.7s0.3-0.4,0.4-0.7c0.1-0.2,0.2-0.4,0.2-0.5c0.1-0.2,0.2-0.2,0.3-0.2c0.1,0,0.2,0,0.2,0.1
		c0.1,0.1,0.1,0.1,0.1,0.2c0,0,0,0,0,0.1c0,0,0,0.1,0,0.1c-0.1,0.2-0.2,0.4-0.3,0.6c-0.1,0.2-0.3,0.5-0.5,0.8s-0.4,0.6-0.6,0.8
		c-0.2,0.3-0.4,0.5-0.6,0.7c-0.2,0.2-0.4,0.4-0.7,0.5c-0.2,0.1-0.4,0.2-0.6,0.2c-0.3,0-0.6-0.1-0.8-0.3c-0.2-0.2-0.3-0.5-0.3-0.9
		c0-0.1,0-0.1,0-0.2c0-0.1,0-0.1,0-0.2c0-0.2,0.1-0.5,0.2-0.8c0.1-0.3,0.2-0.7,0.4-1.1s0.3-0.8,0.5-1.3c0.2-0.4,0.4-0.9,0.6-1.3
		l0.6-1.3c-0.4,0-0.8,0-1.2,0c-0.4,0-0.7,0-0.9,0.1c-0.3,0-0.5,0.1-0.6,0.2S21,10.8,21,11L21,11z"/>
	<path class="st1" d="M24.4,16.9c0,0,0-0.1,0-0.1c0,0,0-0.1,0-0.1c0-0.2,0.1-0.5,0.2-0.9c0.1-0.4,0.3-0.8,0.5-1.3
		c0.2-0.5,0.4-1,0.6-1.5c0.2-0.5,0.5-1,0.7-1.5c0.2-0.4,0.3-0.7,0.5-1.1c0.2-0.4,0.3-0.7,0.4-1c0.1-0.3,0.2-0.6,0.3-0.8
		c0.1-0.2,0.1-0.4,0.1-0.5c0,0,0,0,0,0c0,0,0-0.1,0-0.1c0-0.1,0.1-0.2,0.2-0.2c0.1-0.1,0.3-0.1,0.5-0.1c0.1,0,0.2,0,0.3,0
		c0.1,0,0.2,0.1,0.3,0.1s0.2,0.2,0.2,0.3c0.1,0.1,0.1,0.3,0.1,0.4c0,0.2,0,0.4-0.1,0.6C29.1,9.4,29,9.7,28.9,10s-0.3,0.6-0.4,1
		c-0.2,0.3-0.3,0.7-0.5,1.1c0.2-0.2,0.4-0.3,0.7-0.5c0.2-0.1,0.4-0.2,0.7-0.2c0.3,0,0.6,0.1,0.8,0.3s0.3,0.5,0.3,0.9
		c0,0.1,0,0.1,0,0.2c0,0.1,0,0.1,0,0.2c0,0.2-0.1,0.4-0.1,0.6S30.1,14,30,14.2s-0.2,0.4-0.3,0.6c-0.1,0.2-0.2,0.4-0.3,0.6
		c-0.1,0.3-0.2,0.5-0.3,0.7c-0.1,0.2-0.1,0.4-0.1,0.5c0,0.1,0.1,0.1,0.2,0.1c0.1,0,0.2-0.1,0.3-0.2c0.1-0.1,0.3-0.3,0.4-0.5
		s0.3-0.4,0.5-0.6c0.2-0.2,0.3-0.5,0.5-0.7c0.1-0.2,0.3-0.4,0.4-0.7c0.1-0.2,0.2-0.4,0.2-0.5c0.1-0.2,0.2-0.2,0.3-0.2
		c0.1,0,0.2,0,0.2,0.1c0.1,0.1,0.1,0.1,0.1,0.2c0,0,0,0,0,0.1s0,0.1,0,0.1c-0.1,0.2-0.2,0.4-0.3,0.6c-0.1,0.2-0.3,0.5-0.5,0.8
		s-0.4,0.6-0.6,0.8s-0.4,0.5-0.6,0.7c-0.2,0.2-0.4,0.4-0.7,0.5c-0.2,0.1-0.4,0.2-0.6,0.2c-0.2,0-0.3,0-0.4-0.1
		c-0.1-0.1-0.2-0.2-0.3-0.3s-0.1-0.3-0.2-0.4c0-0.2-0.1-0.3-0.1-0.5c0-0.3,0-0.5,0.1-0.8s0.1-0.5,0.2-0.8c0.1-0.2,0.2-0.5,0.3-0.7
		s0.2-0.4,0.3-0.6c0.1-0.2,0.2-0.4,0.3-0.6c0.1-0.2,0.1-0.3,0.1-0.4c0-0.1,0-0.1-0.1-0.1c-0.1,0-0.2,0.1-0.4,0.2
		c-0.2,0.2-0.4,0.4-0.6,0.6s-0.4,0.5-0.7,0.8c-0.2,0.3-0.4,0.6-0.5,0.8v0L26.6,15v0c0,0,0,0,0,0v0c-0.2,0.5-0.4,0.9-0.6,1.3
		s-0.2,0.6-0.2,0.8c0,0.1,0,0.1,0,0.1v0c0,0,0,0.1,0,0.1c0,0.1-0.1,0.2-0.2,0.3c-0.1,0.1-0.3,0.1-0.4,0.1c-0.2,0-0.3-0.1-0.5-0.2
		C24.6,17.4,24.4,17.2,24.4,16.9L24.4,16.9z"/>
</g>
</svg>
